<svg width="61" height="67" viewBox="0 0 61 67" fill="none" xmlns="http://www.w3.org/2000/svg">
<path d="M7.34113 10.2388C6.20448 10.2388 5.11441 10.7355 4.31068 11.6195C3.50695 12.5036 3.05542 13.7027 3.05542 14.953V59.7388C3.05542 60.989 3.50695 62.1883 4.31068 63.0722C5.11441 63.9562 6.20448 64.453 7.34113 64.453H54.484C55.6206 64.453 56.7108 63.9562 57.5144 63.0722C58.318 62.1883 58.7697 60.989 58.7697 59.7388V14.953C58.7697 13.7027 58.318 12.5036 57.5144 11.6195C56.7108 10.7355 55.6206 10.2388 54.484 10.2388H45.9126" stroke="#29C5EE" stroke-linecap="round" stroke-linejoin="round"/>
<path d="M15.9126 3.16733V17.3102" stroke="#29C5EE" stroke-linecap="round" stroke-linejoin="round"/>
<path d="M45.9126 3.16733V17.3102" stroke="#29C5EE" stroke-linecap="round" stroke-linejoin="round"/>
<path d="M15.9126 10.2388H37.3411" stroke="#29C5EE" stroke-linecap="round" stroke-linejoin="round"/>
<path d="M43.7697 33.1692L26.0629 52.6466L18.0554 53.8459L19.1832 45.0376L36.8524 25.5602L43.7697 33.1692Z" stroke="#29C5EE" stroke-linecap="round" stroke-linejoin="round"/>
</svg>
