<svg width="20" height="21" viewBox="0 0 20 21" fill="none" xmlns="http://www.w3.org/2000/svg">
<path d="M12.7782 2.61035C12.4466 2.27876 11.8724 2.50521 11.8724 2.9662V5.78873C11.8724 6.9695 12.8753 7.94809 14.0965 7.94809C14.8648 7.95618 15.9323 7.95618 16.8462 7.95618C17.3072 7.95618 17.5498 7.41432 17.2263 7.09082C16.0617 5.91813 13.9752 3.8073 12.7782 2.61035Z" fill="#FFF8F8"/>
<path d="M16.5793 9.06408H14.2421C12.3253 9.06408 10.7644 7.5032 10.7644 5.58646V3.24918C10.7644 2.80437 10.4005 2.44043 9.95569 2.44043L6.5266 2.44043C4.03565 2.44043 2.02187 4.05793 2.02187 6.94516L2.02187 14.1107C2.02187 16.9979 4.03565 18.6154 6.5266 18.6154H12.8834C15.3743 18.6154 17.3881 16.9979 17.3881 14.1107V9.87283C17.3881 9.42802 17.0242 9.06408 16.5793 9.06408ZM9.30061 15.1782H6.06561C5.73403 15.1782 5.45905 14.9032 5.45905 14.5717C5.45905 14.2401 5.73403 13.9651 6.06561 13.9651H9.30061C9.63219 13.9651 9.90717 14.2401 9.90717 14.5717C9.90717 14.9032 9.63219 15.1782 9.30061 15.1782ZM10.9181 11.9432L6.06561 11.9432C5.73403 11.9432 5.45905 11.6683 5.45905 11.3367C5.45905 11.0051 5.73403 10.7301 6.06561 10.7301L10.9181 10.7301C11.2497 10.7301 11.5247 11.0051 11.5247 11.3367C11.5247 11.6683 11.2497 11.9432 10.9181 11.9432Z" fill="#FFF8F8"/>
</svg>
