<svg width="40" height="41" viewBox="0 0 40 41" fill="none" xmlns="http://www.w3.org/2000/svg">
<rect y="0.5" width="40" height="40" rx="20" fill="#262626"/>
<path d="M24.1667 13.4166H15.8334C13.3334 13.4166 11.6667 14.6666 11.6667 17.5833V23.4166C11.6667 26.3333 13.3334 27.5833 15.8334 27.5833H24.1667C26.6667 27.5833 28.3334 26.3333 28.3334 23.4166V17.5833C28.3334 14.6666 26.6667 13.4166 24.1667 13.4166ZM24.5584 18.4916L21.95 20.575C21.4 21.0166 20.7 21.2333 20 21.2333C19.3 21.2333 18.5917 21.0166 18.05 20.575L15.4417 18.4916C15.175 18.275 15.1334 17.875 15.3417 17.6083C15.5584 17.3416 15.95 17.2916 16.2167 17.5083L18.825 19.5916C19.4584 20.1 20.5334 20.1 21.1667 19.5916L23.775 17.5083C24.0417 17.2916 24.4417 17.3333 24.65 17.6083C24.8667 17.875 24.825 18.275 24.5584 18.4916Z" fill="#898989"/>
</svg>
