<svg width="20" height="21" viewBox="0 0 20 21" fill="none" xmlns="http://www.w3.org/2000/svg">
<path d="M13.7487 2.37842L5.66124 2.37842C3.4291 2.37842 1.6175 4.18193 1.6175 6.40599L1.6175 11.2423V12.0511C1.6175 14.2751 3.4291 16.0786 5.66124 16.0786H6.87437C7.09273 16.0786 7.38388 16.2242 7.52137 16.4021L8.73449 18.0115C9.26826 18.7232 10.1417 18.7232 10.6755 18.0115L11.8886 16.4021C12.0423 16.1999 12.2849 16.0786 12.5356 16.0786H13.7487C15.9809 16.0786 17.7925 14.2751 17.7925 12.0511V6.40599C17.7925 4.18193 15.9809 2.37842 13.7487 2.37842ZM10.5137 11.8812L5.66124 11.8812C5.32966 11.8812 5.05468 11.6062 5.05468 11.2747C5.05468 10.9431 5.32966 10.6681 5.66124 10.6681L10.5137 10.6681C10.8453 10.6681 11.1203 10.9431 11.1203 11.2747C11.1203 11.6062 10.8453 11.8812 10.5137 11.8812ZM13.7487 7.83747L5.66124 7.83747C5.32966 7.83747 5.05468 7.5625 5.05468 7.23091C5.05468 6.89932 5.32966 6.62435 5.66124 6.62435L13.7487 6.62435C14.0803 6.62435 14.3553 6.89932 14.3553 7.23091C14.3553 7.5625 14.0803 7.83747 13.7487 7.83747Z" fill="white"/>
</svg>
