<svg width="40" height="41" viewBox="0 0 40 41" fill="none" xmlns="http://www.w3.org/2000/svg">
<rect y="0.5" width="40" height="40" rx="20" fill="#262626"/>
<path d="M19.2084 22.9583L17.6667 24.5C17.3417 24.825 16.825 24.825 16.4917 24.5083C16.4 24.4166 16.3084 24.3333 16.2167 24.2416C15.3584 23.375 14.5834 22.4666 13.8917 21.5166C13.2084 20.5666 12.6584 19.6166 12.2584 18.675C11.8667 17.725 11.6667 16.8166 11.6667 15.95C11.6667 15.3833 11.7667 14.8416 11.9667 14.3416C12.1667 13.8333 12.4834 13.3666 12.925 12.95C13.4584 12.425 14.0417 12.1666 14.6584 12.1666C14.8917 12.1666 15.125 12.2166 15.3334 12.3166C15.55 12.4166 15.7417 12.5666 15.8917 12.7833L17.825 15.5083C17.975 15.7166 18.0834 15.9083 18.1584 16.0916C18.2334 16.2666 18.275 16.4416 18.275 16.6C18.275 16.8 18.2167 17 18.1 17.1916C17.9917 17.3833 17.8334 17.5833 17.6334 17.7833L17 18.4416C16.9084 18.5333 16.8667 18.6416 16.8667 18.775C16.8667 18.8416 16.875 18.9 16.8917 18.9666C16.9167 19.0333 16.9417 19.0833 16.9584 19.1333C17.1084 19.4083 17.3667 19.7666 17.7334 20.2C18.1084 20.6333 18.5084 21.075 18.9417 21.5166C19.025 21.6 19.1167 21.6833 19.2 21.7666C19.5334 22.0916 19.5417 22.625 19.2084 22.9583Z" fill="#898989"/>
<path d="M28.3083 25.775C28.3083 26.0083 28.2667 26.25 28.1833 26.4833C28.1583 26.55 28.1333 26.6166 28.1 26.6833C27.9583 26.9833 27.775 27.2666 27.5333 27.5333C27.125 27.9833 26.675 28.3083 26.1667 28.5166C26.1583 28.5166 26.15 28.525 26.1417 28.525C25.65 28.725 25.1167 28.8333 24.5417 28.8333C23.6917 28.8333 22.7833 28.6333 21.825 28.225C20.8667 27.8166 19.9083 27.2666 18.9583 26.575C18.6333 26.3333 18.3083 26.0916 18 25.8333L20.725 23.1083C20.9583 23.2833 21.1667 23.4166 21.3417 23.5083C21.3833 23.525 21.4333 23.55 21.4917 23.575C21.5583 23.6 21.625 23.6083 21.7 23.6083C21.8417 23.6083 21.95 23.5583 22.0417 23.4666L22.675 22.8416C22.8833 22.6333 23.0833 22.475 23.275 22.375C23.4667 22.2583 23.6583 22.2 23.8667 22.2C24.025 22.2 24.1917 22.2333 24.375 22.3083C24.5583 22.3833 24.75 22.4916 24.9583 22.6333L27.7167 24.5916C27.9333 24.7416 28.0833 24.9166 28.175 25.125C28.2583 25.3333 28.3083 25.5416 28.3083 25.775Z" fill="#898989"/>
</svg>
