<svg width="21" height="20" viewBox="0 0 21 20" fill="none" xmlns="http://www.w3.org/2000/svg">
<path d="M10.0341 17.5873C5.46463 17.5873 1.74438 13.8671 1.74438 9.29762C1.74438 4.72819 5.46463 1.00795 10.0341 1.00795C14.6035 1.00795 18.3237 4.72819 18.3237 9.29762C18.3237 13.8671 14.6035 17.5873 10.0341 17.5873ZM10.0341 2.22107C6.1278 2.22107 2.95751 5.39946 2.95751 9.29762C2.95751 13.1958 6.1278 16.3742 10.0341 16.3742C13.9403 16.3742 17.1106 13.1958 17.1106 9.29762C17.1106 5.39946 13.9403 2.22107 10.0341 2.22107Z" fill="#898989"/>
<path d="M18.5259 18.396C18.3723 18.396 18.2186 18.3394 18.0973 18.2181L16.4798 16.6006C16.2453 16.3661 16.2453 15.9779 16.4798 15.7434C16.7143 15.5088 17.1025 15.5088 17.3371 15.7434L18.9546 17.3608C19.1891 17.5954 19.1891 17.9836 18.9546 18.2181C18.8333 18.3394 18.6796 18.396 18.5259 18.396Z" fill="#898989"/>
</svg>
