<svg width="39" height="40" viewBox="0 0 39 40" fill="none" xmlns="http://www.w3.org/2000/svg">
<rect x="0.182007" y="0.292078" width="38.8199" height="38.8199" rx="19.41" fill="#1E1E1E"/>
<path d="M19.5919 22.7348C17.9178 22.7348 16.5591 21.3761 16.5591 19.7019C16.5591 18.0278 17.9178 16.6691 19.5919 16.6691C21.266 16.6691 22.6247 18.0278 22.6247 19.7019C22.6247 21.3761 21.266 22.7348 19.5919 22.7348ZM19.5919 17.8823C18.589 17.8823 17.7722 18.6991 17.7722 19.7019C17.7722 20.7048 18.589 21.5216 19.5919 21.5216C20.5947 21.5216 21.4116 20.7048 21.4116 19.7019C21.4116 18.6991 20.5947 17.8823 19.5919 17.8823Z" fill="#898989"/>
<path d="M22.188 27.9431C22.0181 27.9431 21.8483 27.9188 21.6784 27.8784C21.177 27.7409 20.7565 27.4255 20.4896 26.9807L20.3925 26.8189C19.9154 25.994 19.2603 25.994 18.7831 26.8189L18.6942 26.9726C18.4273 27.4255 18.0067 27.749 17.5053 27.8784C16.9958 28.0159 16.4701 27.9431 16.0253 27.6762L14.6342 26.8756C14.1409 26.5925 13.7851 26.1315 13.6314 25.5735C13.4858 25.0154 13.5586 24.4412 13.8417 23.9479C14.0762 23.5354 14.1409 23.1634 14.0034 22.9289C13.8659 22.6943 13.5182 22.5568 13.041 22.5568C11.8602 22.5568 10.8978 21.5944 10.8978 20.4136V18.9902C10.8978 17.8095 11.8602 16.8471 13.041 16.8471C13.5182 16.8471 13.8659 16.7096 14.0034 16.475C14.1409 16.2405 14.0843 15.8685 13.8417 15.456C13.5586 14.9627 13.4858 14.3804 13.6314 13.8304C13.777 13.2724 14.1328 12.8114 14.6342 12.5283L16.0334 11.7277C16.9473 11.1858 18.1523 11.5012 18.7023 12.4313L18.7993 12.593C19.2765 13.418 19.9316 13.418 20.4087 12.593L20.4977 12.4394C21.0476 11.5012 22.2527 11.1858 23.1746 11.7358L24.5657 12.5364C25.059 12.8195 25.4149 13.2805 25.5685 13.8385C25.7141 14.3966 25.6413 14.9708 25.3583 15.4641C25.1237 15.8766 25.059 16.2486 25.1965 16.4831C25.334 16.7177 25.6818 16.8552 26.1589 16.8552C27.3397 16.8552 28.3021 17.8176 28.3021 18.9983V20.4217C28.3021 21.6025 27.3397 22.5649 26.1589 22.5649C25.6818 22.5649 25.334 22.7024 25.1965 22.9369C25.059 23.1715 25.1156 23.5435 25.3583 23.956C25.6413 24.4493 25.7222 25.0316 25.5685 25.5816C25.423 26.1396 25.0671 26.6006 24.5657 26.8836L23.1665 27.6843C22.8592 27.8541 22.5276 27.9431 22.188 27.9431ZM19.5919 24.9507C20.3117 24.9507 20.9829 25.4036 21.4439 26.2043L21.5329 26.358C21.6299 26.5278 21.7917 26.6491 21.9858 26.6976C22.1799 26.7461 22.374 26.7219 22.5357 26.6248L23.9349 25.8161C24.1451 25.6948 24.3069 25.4926 24.3716 25.25C24.4363 25.0073 24.4039 24.7566 24.2826 24.5464C23.8216 23.7538 23.765 22.9369 24.1209 22.3142C24.4767 21.6915 25.2127 21.3356 26.1347 21.3356C26.6523 21.3356 27.0647 20.9232 27.0647 20.4056V18.9822C27.0647 18.4727 26.6523 18.0521 26.1347 18.0521C25.2127 18.0521 24.4767 17.6963 24.1209 17.0735C23.765 16.4508 23.8216 15.6339 24.2826 14.8414C24.4039 14.6311 24.4363 14.3804 24.3716 14.1378C24.3069 13.8951 24.1532 13.701 23.9429 13.5716L22.5438 12.771C22.196 12.5607 21.7351 12.682 21.5248 13.0379L21.4358 13.1915C20.9748 13.9922 20.3036 14.4451 19.5838 14.4451C18.864 14.4451 18.1927 13.9922 17.7318 13.1915L17.6428 13.0298C17.4406 12.6901 16.9877 12.5688 16.6399 12.771L15.2408 13.5797C15.0305 13.701 14.8688 13.9032 14.8041 14.1458C14.7394 14.3885 14.7717 14.6392 14.893 14.8495C15.354 15.642 15.4106 16.4589 15.0548 17.0816C14.6989 17.7043 13.963 18.0602 13.041 18.0602C12.5234 18.0602 12.111 18.4727 12.111 18.9902V20.4136C12.111 20.9232 12.5234 21.3437 13.041 21.3437C13.963 21.3437 14.6989 21.6996 15.0548 22.3223C15.4106 22.945 15.354 23.7619 14.893 24.5544C14.7717 24.7647 14.7394 25.0154 14.8041 25.2581C14.8688 25.5007 15.0224 25.6948 15.2327 25.8242L16.6319 26.6248C16.8017 26.73 17.0039 26.7542 17.1899 26.7057C17.384 26.6572 17.5457 26.5278 17.6509 26.358L17.7398 26.2043C18.2008 25.4117 18.8721 24.9507 19.5919 24.9507Z" fill="#898989"/>
</svg>
