<svg width="62" height="55" viewBox="0 0 62 55" fill="none" xmlns="http://www.w3.org/2000/svg">
<path d="M2.70654 42.8287H59.3494" stroke="#CF1A2C" stroke-linecap="round" stroke-linejoin="round"/>
<path d="M48.4565 52.4716L59.3494 42.8287L48.4565 33.1859" stroke="#CF1A2C" stroke-linecap="round" stroke-linejoin="round"/>
<path d="M10.114 22.8127V6.35443C10.114 8.62683 8.03301 10.469 5.46604 10.469H3.91672" stroke="#CF1A2C" stroke-linecap="round" stroke-linejoin="round"/>
<path d="M16.3109 22.8132H3.91635" stroke="#CF1A2C" stroke-linecap="round" stroke-linejoin="round"/>
<path d="M37.2251 22.8127H24.8305V20.4748C24.8305 18.84 25.9237 17.3604 27.6155 16.7052L34.5124 14.034C36.1602 13.3958 37.2251 11.9545 37.2251 10.3622C37.2251 8.14878 35.1981 6.3544 32.6977 6.3544H29.4785C27.4547 6.3544 25.7331 7.49935 25.095 9.09745" stroke="#CF1A2C" stroke-linecap="round" stroke-linejoin="round"/>
<path d="M53.6123 13.8983C56.1791 13.8983 58.2601 15.7404 58.2601 18.0128V18.6986C58.2601 20.971 56.1791 22.8132 53.6123 22.8132L50.5135 22.8132C48.4896 22.8132 46.7681 21.6682 46.1302 20.0701" stroke="#CF1A2C" stroke-linecap="round" stroke-linejoin="round"/>
<path d="M46.8008 9.09745C47.3067 7.5144 48.9507 6.35444 50.9009 6.3544H53.225C55.5783 6.35436 57.4859 8.04302 57.4859 10.1261C57.4859 12.2092 55.5783 13.8978 53.225 13.8978L52.8377 13.8978" stroke="#CF1A2C" stroke-linecap="round" stroke-linejoin="round"/>
</svg>
